<svg id="Layer_1" data-name="Layer 1" xmlns="http://www.w3.org/2000/svg" viewBox="0 0 349.24 116.27"><defs><style>.cls-1{fill:#f8ca03;}.cls-2{fill:#cd4730;}</style></defs><title>new-logo</title><path class="cls-1" d="M164.6,459.21c-9.82,0-20.15-2.17-27.42-5.48l3.19-14.8A80.46,80.46,0,0,0,164.85,443c9.82,0,11.73-1.92,11.73-9.06,0-7.65-.38-8.54-14.28-11.6-20.53-4.47-23.59-8.55-23.59-26.91,0-17,6-23.72,29.33-23.72a123.63,123.63,0,0,1,25.76,2.8l-1.91,16.07c-9.7-1.66-15.94-2.42-23.6-2.42-8.54,0-10.45,1.53-10.45,7.78,0,8.16.38,8.29,13.77,11.48,22.95,5.48,24.1,9.94,24.1,26.65S190.23,459.21,164.6,459.21Z" transform="translate(-137.18 -370.3)"/><path class="cls-1" d="M242,460.33V419.27c0-2.81-1.27-4.47-4.46-4.47s-9.44,2.55-13.39,4.59v40.94H205.79V372.85l18.11-2.55v32.39c7.53-3.45,15-5.74,22.19-5.74,10.59,0,14.28,7.91,14.28,19.89v43.49Z" transform="translate(-137.18 -370.3)"/><path class="cls-1" d="M269.69,435.53V421.11c0-12.75,6-25.12,28.05-25.12s28.06,12.37,28.06,25.12v14.42c0,12.75-6,25.12-28.06,25.12S269.69,448.28,269.69,435.53Zm37.74.51V420.6c0-5.86-3.06-9.18-9.69-9.18s-9.69,3.32-9.69,9.18V436c0,5.86,3.06,9.18,9.69,9.18S307.43,441.9,307.43,436Z" transform="translate(-137.18 -370.3)"/><path class="cls-1" d="M390.28,437.21c0,14.67-6.38,23-20.92,23a75.88,75.88,0,0,1-15.81-1.79V484l-18.37,2.55V396.79h14.41l1.92,5c4.33-2.8,12.37-6.25,19.13-6.25,12.62,0,19.64,7.78,19.64,23Zm-36.73,5.49a55.86,55.86,0,0,0,11.73,1.53c4.85,0,6.63-2.93,6.63-7V418.47c0-4.34-1.78-7-6.63-7-4.21,0-9,2.55-11.73,4.85Z" transform="translate(-137.18 -370.3)"/><path class="cls-2" d="M420.18,389.09v69.73H400.55V389.09H377.14v-17.4h66.45v17.4Z" transform="translate(-137.18 -370.3)"/><path class="cls-2" d="M430.3,435.05V420.64c0-12.76,6-25.13,28.06-25.13s28.05,12.37,28.05,25.13v14.41c0,12.75-6,25.12-28.05,25.12S430.3,447.8,430.3,435.05Zm37.75.51V420.13c0-5.87-3.06-9.19-9.69-9.19s-9.69,3.32-9.69,9.19v15.43c0,5.86,3.06,9.18,9.69,9.18S468.05,441.42,468.05,435.56Z" transform="translate(-137.18 -370.3)"/></svg>