<svg id="Layer_1" data-name="Layer 1" xmlns="http://www.w3.org/2000/svg" viewBox="0 0 72 15">
  <title>ps4</title>
  <g>
    <g>
      <g>
        <path d="M71.91,6.94h-46v9.32H72V6.94ZM70,15.13h.81v.11h-.34v.92h-.14v-.92H70v-.11Z" transform="translate(0 -3.5)" style="fill: none"/>
        <polygon points="70.35 12.66 70.5 12.66 70.5 11.75 70.83 11.75 70.83 11.63 70.02 11.63 70.02 11.75 70.35 11.75 70.35 12.66"/>
      </g>
      <g>
        <path d="M71.91,6.94h-46v9.32H72V6.94Zm-1,8.19h.19l.3.88.29-.88h.17v1H71.8v-.84l-.28.84h-.14l-.28-.84v.84H71v-1Z" transform="translate(0 -3.5)" style="fill: none"/>
        <polygon points="71.1 11.82 71.38 12.66 71.52 12.66 71.8 11.82 71.8 12.66 71.91 12.66 71.91 11.63 71.74 11.63 71.45 12.51 71.15 11.63 70.96 11.63 70.96 12.66 71.1 12.66 71.1 11.82"/>
      </g>
      <path d="M48,13.68V9.39c0-.88.41-1.51,1.28-1.51h5.38a.06.06,0,0,0,.06-.06V6.94H48.15A2.29,2.29,0,0,0,46,9.39v4.29c0,.87-.42,1.5-1.28,1.5H39.08s-.07,0-.07.06v.86a.08.08,0,0,0,.05.07H45.5A2.35,2.35,0,0,0,48,13.68Z" transform="translate(0 -3.5)"/>
      <path d="M25.93,16.17h1.88a.08.08,0,0,0,.05-.07V13.36c0-.87.5-1.48,1.22-1.48h7.77a2.35,2.35,0,0,0,2.6-2.49,2.29,2.29,0,0,0-2.12-2.45H25.89v.88s0,.06.07.06H36.19c.88,0,1.28.63,1.28,1.51s-.4,1.5-1.28,1.5h-8.1a2.3,2.3,0,0,0-2.21,2.47V16.1A.08.08,0,0,0,25.93,16.17Z" transform="translate(0 -3.5)"/>
      <g>
        <path d="M56.37,14.19H65a.08.08,0,0,0,.07-.07V8.79a.1.1,0,0,0-.17-.08L56.31,14c-.05,0-.07.07-.06.11S56.29,14.19,56.37,14.19Z" transform="translate(0 -3.5)" style="fill: none"/>
        <path d="M54.7,15.18H65s.06,0,.06,0v.88a.06.06,0,0,0,.06.06H67a.06.06,0,0,0,.06-.06v-.86s0-.06.07-.06H69a.06.06,0,0,0,.06-.06v-.87a.06.06,0,0,0-.06-.06H67.13a.08.08,0,0,1-.07-.07V7.88c0-.5-.18-.83-.5-.94H66a2.3,2.3,0,0,0-.55.24L54.36,14.05c-.43.27-.58.57-.48.79S54.22,15.18,54.7,15.18ZM56.31,14l8.61-5.32a.1.1,0,0,1,.17.08v5.33a.08.08,0,0,1-.07.07H56.37c-.08,0-.11,0-.12,0S56.26,14.07,56.31,14Z" transform="translate(0 -3.5)"/>
      </g>
    </g>
    <g>
      <path d="M7.21,3.5c.84.15,1.66.38,2.48.61l1.41.43a9.82,9.82,0,0,1,2.12.89,4.16,4.16,0,0,1,.82.63,3.3,3.3,0,0,1,.64.89,4.83,4.83,0,0,1,.41,1.94A5.56,5.56,0,0,1,15,10.18a3,3,0,0,1-.39,1.06,1.83,1.83,0,0,1-1.64.91,3.41,3.41,0,0,1-1.4-.35V7.43a3.4,3.4,0,0,0,0-.78.9.9,0,0,0-.27-.54.79.79,0,0,0-.38-.18.37.37,0,0,0-.37.14,1.12,1.12,0,0,0-.19.64V18.38l-3.14-1Z" transform="translate(0 -3.5)"/>
      <path d="M2.51,13.35,6.6,11.89v1.83L3.36,14.88a1.15,1.15,0,0,0-.42.23.23.23,0,0,0-.07.21.4.4,0,0,0,.22.18,2.36,2.36,0,0,0,.75.12,4.58,4.58,0,0,0,.83-.09,3.47,3.47,0,0,0,.55-.16l1.38-.5V16.5a11,11,0,0,1-1.72.18,9.94,9.94,0,0,1-3.42-.52,3,3,0,0,1-1-.47A1.25,1.25,0,0,1,0,15.2a.67.67,0,0,1,0-.52,1,1,0,0,1,.36-.39,5.7,5.7,0,0,1,1.09-.58C1.84,13.58,2.17,13.47,2.51,13.35Z" transform="translate(0 -3.5)"/>
      <path d="M13.49,12.74c.31,0,.62-.05.93-.06a10.06,10.06,0,0,1,3,.44l.57.19a3.19,3.19,0,0,1,1,.52.85.85,0,0,1,.3.59.73.73,0,0,1-.19.5,2.65,2.65,0,0,1-.85.59,8.35,8.35,0,0,1-1,.41L11,18.17V16.41s0-.06,0-.07l4.77-1.7a2.24,2.24,0,0,0,.63-.28.26.26,0,0,0,.12-.26.38.38,0,0,0-.22-.17,2.4,2.4,0,0,0-.75-.12,3.54,3.54,0,0,0-1.17.18L11,15.18V13.3A11,11,0,0,1,13.49,12.74Z" transform="translate(0 -3.5)"/>
      <g>
        <path d="M18.14,17.07a.71.71,0,0,1,.65.28.73.73,0,0,1,.08.74.71.71,0,0,1-.65.41.7.7,0,0,1-.62-.36.72.72,0,0,1,0-.64A.74.74,0,0,1,18.14,17.07Zm-.06.13a.61.61,0,0,0-.34.23.59.59,0,0,0-.1.48.59.59,0,0,0,.93.36.62.62,0,0,0,.23-.65.63.63,0,0,0-.3-.36A.62.62,0,0,0,18.08,17.2Z" transform="translate(0 -3.5)"/>
        <path d="M17.91,17.37h.39a.33.33,0,0,1,.21.07.29.29,0,0,1,0,.22.23.23,0,0,1-.08.11s.06.05.06.09,0,.15,0,.22a.32.32,0,0,1,0,.09h-.16c0-.09,0-.18,0-.27a.1.1,0,0,0-.09-.06h-.26c0,.11,0,.22,0,.33h-.14Zm.14.13v.22h.24a.15.15,0,0,0,.11,0,.17.17,0,0,0,0-.14s-.06,0-.1,0Z" transform="translate(0 -3.5)"/>
      </g>
    </g>
  </g>
</svg>
