<?xml version="1.0" encoding="utf-8"?>
<!-- Generator: Adobe Illustrator 24.1.3, SVG Export Plug-In . SVG Version: 6.00 Build 0)  -->
<svg version="1.1"
	 id="svg8" xmlns:cc="http://creativecommons.org/ns#" xmlns:dc="http://purl.org/dc/elements/1.1/" xmlns:inkscape="http://www.inkscape.org/namespaces/inkscape" xmlns:rdf="http://www.w3.org/1999/02/22-rdf-syntax-ns#" xmlns:sodipodi="http://sodipodi.sourceforge.net/DTD/sodipodi-0.dtd" xmlns:svg="http://www.w3.org/2000/svg"
	 xmlns="http://www.w3.org/2000/svg" xmlns:xlink="http://www.w3.org/1999/xlink" x="0px" y="0px" viewBox="0 0 1613.9 364.1"
	 style="enable-background:new 0 0 1613.9 364.1;" xml:space="preserve">
<style type="text/css">
	.st0{fill-rule:evenodd;clip-rule:evenodd;}
</style>
<sodipodi:namedview  bordercolor="#666666" borderopacity="1.0" fit-margin-bottom="0" fit-margin-left="0" fit-margin-right="0" fit-margin-top="0" id="base" inkscape:current-layer="layer1" inkscape:cx="1075.919" inkscape:cy="242.73923" inkscape:document-units="mm" inkscape:guide-bbox="true" inkscape:pageopacity="0.0" inkscape:pageshadow="2" inkscape:snap-global="false" inkscape:snap-smooth-nodes="true" inkscape:window-height="1027" inkscape:window-maximized="1" inkscape:window-width="1920" inkscape:window-x="-8" inkscape:window-y="-8" inkscape:zoom="0.66919535" pagecolor="#ffffff" showgrid="false" showguides="false">
	<sodipodi:guide  id="guide826" inkscape:locked="false" orientation="0,1" position="214.14172,103.16222"></sodipodi:guide>
	<sodipodi:guide  id="guide828" inkscape:locked="false" orientation="0,1" position="229.77699,25.38679"></sodipodi:guide>
	<sodipodi:guide  id="guide830" inkscape:locked="false" orientation="1,0" position="208.85641,122.97211"></sodipodi:guide>
	<sodipodi:guide  id="guide832" inkscape:locked="false" orientation="1,0" position="225.67635,75.063621"></sodipodi:guide>
	<sodipodi:guide  id="guide834" inkscape:locked="false" orientation="0,1" position="254.21355,94.245911"></sodipodi:guide>
	<sodipodi:guide  id="guide836" inkscape:locked="false" orientation="0,1" position="296.05983,69.820341"></sodipodi:guide>
	<sodipodi:guide  id="guide838" inkscape:locked="false" orientation="0,1" position="334.88073,60.904031"></sodipodi:guide>
	<sodipodi:guide  id="guide842" inkscape:locked="false" orientation="0,1" position="340.82748,34.30311"></sodipodi:guide>
	<sodipodi:guide  id="guide850" inkscape:locked="false" orientation="1,0" position="305.6966,90.386181"></sodipodi:guide>
	<sodipodi:guide  id="guide852" inkscape:locked="false" orientation="1,0" position="322.51654,90.386181"></sodipodi:guide>
	<sodipodi:guide  id="guide854" inkscape:locked="false" orientation="1,0" position="369.38558,90.386181"></sodipodi:guide>
	<sodipodi:guide  id="guide856" inkscape:locked="false" orientation="1,0" position="386.20552,60.904031"></sodipodi:guide>
	<sodipodi:guide  id="guide858" inkscape:locked="false" orientation="1,0" position="455.58001,90.386181"></sodipodi:guide>
	<sodipodi:guide  id="guide860" inkscape:locked="false" orientation="1,0" position="472.39996,90.386181"></sodipodi:guide>
	<sodipodi:guide  id="guide862" inkscape:locked="false" orientation="1,0" position="552.52058,54.86894"></sodipodi:guide>
	<sodipodi:guide  id="guide864" inkscape:locked="false" orientation="1,0" position="569.34052,54.86894"></sodipodi:guide>
</sodipodi:namedview>
<g id="layer1" transform="translate(301.27158,-75.603694)" inkscape:groupmode="layer" inkscape:label="Layer 1">
	<path id="rect840" inkscape:connector-curvature="0" sodipodi:nodetypes="ccccccccccccc" class="st0" d="M805.5,147.3
		c-33,0-59.7,26.7-59.7,59.7v101.8c0,18.6-15.1,33.7-33.7,33.7H597.2v25.3h136.6c33,0,59.7-26.7,59.7-59.7V206.3
		c0-18.6,15.1-33.7,33.7-33.7l117,0v-25.3H805.5z"/>
	<path id="path916" inkscape:connector-curvature="0" sodipodi:nodetypes="ccccccccccccccc" class="st0" d="M290.8,147.3v25.3h239.9
		c19.1,0,34.6,15.5,34.6,34.6c0,19.1-15.5,34.6-34.6,34.6H350.4c-33,0-59.7,26.7-59.7,59.7v66.3h47.7v-67
		c0-18.6,15.1-33.7,33.7-33.7h180.9c33.1,0,59.9-26.8,59.9-59.9c0-33.1-26.8-59.9-59.9-59.9H290.8z"/>
	<path id="path929" inkscape:connector-curvature="0" sodipodi:nodetypes="ccccccccccccccccc" class="st0" d="M990.1,147.3v82.3
		c0,20.7,16.8,37.5,37.5,37.5h199.6c20.8,0,37.7,16.9,37.7,37.7c0,20.8-16.9,37.7-37.7,37.7H990.1v25.3h259.5c34.8,0,63-28.2,63-63
		c0-34.8-28.2-63-63-63h-196.8c-8.3,0-15.1-6.7-15.1-15.1v-54.2H1304v-25.3H990.1z"/>
	<path id="path72" inkscape:connector-curvature="0" d="M-124.8,75.6v339.7l76.9,24.4V154.8c0-13.3,6-22.3,15.6-19.1
		c12.5,3.5,15,15.8,15,29.1v113.8c47.9,23.1,85.6,0,85.6-61.1c0-62.7-22.1-90.5-87.1-112.9C-44.5,96-92.1,81.6-124.8,75.6"/>
	<path id="path76" inkscape:connector-curvature="0" d="M-33.4,390.1L90.3,346c14-5,16.2-12.1,4.8-15.9c-11.4-3.7-32-2.6-46,2.4
		l-82.4,29v-46.2l4.7-1.6c0,0,23.8-8.4,57.3-12.2c33.5-3.6,74.5,0.5,106.6,12.7c36.3,11.5,40.4,28.3,31.2,39.9
		c-9.2,11.6-31.8,20-31.8,20l-168,60.3V390.1z"/>
	<path id="path80" inkscape:connector-curvature="0" d="M-265.8,385.4c-37.2-10.5-43.4-32.3-26.5-44.9
		c15.7-11.6,42.4-20.4,42.4-20.4l110.2-39.2v44.6L-219,354c-14,5-16.1,12.1-4.8,15.8c11.4,3.8,32,2.7,46.1-2.4l38-13.8v40
		c-2.4,0.4-5.1,0.8-7.6,1.2C-185.4,401.1-225.9,398.5-265.8,385.4"/>
</g>
</svg>
