<?xml version="1.0" encoding="utf-8"?>
<!-- Generator: Adobe Illustrator 24.2.1, SVG Export Plug-In . SVG Version: 6.00 Build 0)  -->
<svg version="1.1"
	 id="svg2" inkscape:version="0.92.4 (5da689c313, 2019-01-14)" sodipodi:docname="Sony Channel logo.svg" sodipodi:version="0.32" xmlns:cc="http://creativecommons.org/ns#" xmlns:dc="http://purl.org/dc/elements/1.1/" xmlns:inkscape="http://www.inkscape.org/namespaces/inkscape" xmlns:rdf="http://www.w3.org/1999/02/22-rdf-syntax-ns#" xmlns:sodipodi="http://sodipodi.sourceforge.net/DTD/sodipodi-0.dtd" xmlns:svg="http://www.w3.org/2000/svg"
	 xmlns="http://www.w3.org/2000/svg" xmlns:xlink="http://www.w3.org/1999/xlink" x="0px" y="0px" viewBox="0 0 1164 174.2"
	 style="enable-background:new 0 0 1164 174.2;" xml:space="preserve">
<sodipodi:namedview  bordercolor="#666666" borderopacity="1.0" gridtolerance="1" guidetolerance="1" id="base" inkscape:current-layer="svg2" inkscape:cx="69.793098" inkscape:cy="58.956819" inkscape:pageopacity="0" inkscape:pageshadow="2" inkscape:showpageshadow="false" inkscape:window-height="705" inkscape:window-maximized="1" inkscape:window-width="1366" inkscape:window-x="-8" inkscape:window-y="-8" inkscape:zoom="1" objecttolerance="1" pagecolor="#ffffff" showgrid="false" showguides="false" units="px">
	</sodipodi:namedview>
<g id="_x23_ffffffff" transform="translate(0,-1060.2)">
</g>
<g id="_x23_2acbffff-4" transform="matrix(0.74035173,0,0,0.75447038,-840.95699,-746.35387)">
</g>
<g id="g20">
</g>
<g id="g24">
</g>
<g id="g6">
	<path id="path2" inkscape:connector-curvature="0" d="M568.7,48.7c-8.3,0-14.6,2.1-19.4,5.6c-4.9,3.5-6.9,8.3-6.9,14.6
		s2.1,11.1,5.5,14.6c4.2,3.5,9.7,6.2,17.3,7.6l6.2,1.4c6.2,1.4,11.1,2.8,13.2,4.9c2.1,2.1,3.5,4.2,3.5,7.6c0,4.2-1.4,6.9-4.2,9
		c-2.8,2.1-7.6,2.8-12.5,2.8c-6.2,0-11.8-1.4-15.3-4.2c-3.5-2.8-4.9-6.9-4.9-12.5h-11.1c0,8.3,2.8,15.3,8.3,19.4
		c5.5,4.9,13.2,6.2,22.9,6.2c9,0,16-2.1,21.5-5.6c4.9-4.2,7.6-9.7,7.6-16c0-5.6-2.1-10.4-5.5-13.9c-3.5-3.5-9.7-6.2-18.7-7.6
		l-6.2-1.4c-6.2-1.4-10.4-2.8-12.5-4.9c-2.1-1.4-3.5-4.2-3.5-7.6c0-3.5,1.4-5.6,4.2-7.6c2.8-2.1,6.2-2.8,11.1-2.8
		c6.2,0,11.1,1.4,13.2,3.5c2.8,2.1,4.2,5.6,4.9,10.4h11.8c0-7.6-2.8-13.2-7.6-17.3C586,50.8,578.4,48.7,568.7,48.7z M967.6,48.7
		c-8.3,0-14.6,2.1-19.4,5.6c-4.9,3.5-6.9,8.3-6.9,14.6s2.1,11.1,5.6,14.6c4.2,3.5,9.7,6.2,17.3,7.6l6.2,1.4
		c6.2,1.4,11.1,2.8,13.2,4.9c2.1,2.1,3.5,4.2,3.5,7.6c0,4.2-1.4,6.9-4.2,9c-2.8,2.1-7.6,2.8-12.5,2.8c-6.2,0-11.8-1.4-15.3-4.2
		c-3.5-2.8-4.9-6.9-4.9-12.5h-11.1c0,8.3,2.8,15.3,8.3,19.4c5.6,4.9,13.2,6.2,22.9,6.2c9,0,16-2.1,21.5-5.6c4.9-4.2,7.6-9.7,7.6-16
		c0.7-5.6-1.4-10.4-4.9-13.9c-3.5-3.5-9.7-6.2-18.7-7.6l-6.2-1.4c-6.2-1.4-10.4-2.8-12.5-4.9c-2.1-1.4-3.5-4.2-3.5-7.6
		c0-3.5,1.4-5.6,4.2-7.6c2.8-2.1,6.2-2.8,11.1-2.8c6.2,0,11.1,1.4,13.2,3.5c2.8,2.1,4.2,5.6,4.9,10.4h11.1c0-7.6-2.8-13.2-7.6-17.3
		C984.3,50.8,977.3,48.7,967.6,48.7z M631.1,50.8v74h52.7v-10.4h-41.6V91.5H679v-9.7h-36.8V60.3h41.6v-9.7h-52.7V50.8z M716.2,50.8
		v74h11.1V94.5h21.5c4.2,0,7.6,1.4,9,2.8c2.1,2.1,2.8,5.6,2.8,9.7l0.7,8.3c0,4.2,0.7,7.6,2.1,9.7h11.8c-1.4-2.8-2.1-5.6-2.1-9.7
		l-0.7-11.8c0-4.2-1.4-7.6-2.8-9.7c-1.4-2.1-4.2-4.2-7.6-4.9c4.2-1.4,6.9-3.5,9-6.2c2.1-2.8,3.5-6.9,3.5-11.8
		c0-6.2-2.1-11.8-6.9-15.3c-4.9-3.5-11.1-5.6-18.7-5.6h-32.6L716.2,50.8L716.2,50.8z M807.6,50.8v74h11.1v-74H807.6z M856.1,50.8v74
		h53.4v-10.4h-42.3V91.5H904v-9.7h-36.8V60.3h42.3v-9.7h-53.4V50.8z M1058.5,50.8l25.7,35.4l-28.4,38.9h12.5l21.5-29.8l22.2,29.8
		h12.5L1096,86.2l25.7-35.4h-12.5l-19.7,27.1l-19.4-27.1C1070.1,50.8,1058.5,50.8,1058.5,50.8z M728,60.5h20.1
		c4.9,0,8.3,1.4,11.1,2.8c2.1,2.1,4.2,4.9,4.2,9c0,4.2-1.4,7.6-3.5,9c-2.1,2.1-5.6,3.5-9.7,3.5h-21.5V60.5H728z"/>
</g>
<g>
	<path d="M76.6,16.9c-14.3,0-25.8,3.7-36.8,10.1c0,0,0,0,0,0.5c0,0.5,0,0,0.5,0c13.8-2.8,34.5,8.7,36.3,10.1l0,0l0,0
		c1.8-1.4,22.5-12.9,36.3-10.1h0.5V27C102.4,21,90.9,16.9,76.6,16.9z"/>
	<path d="M123.5,36.7c-3.7,0-11.5,2.8-27.6,18.9l0,0l0,0c14.3,17,41.4,56.9,36.3,73.4v0.5h0.5c8.7-12,14.3-26.7,14.3-42.3
		c0-19.3-7.8-37.3-20.7-49.5c0,0,0,0-0.5,0C125.4,36.7,124.9,36.7,123.5,36.7z"/>
	<path d="M29.9,36.7c-1.4,0-1.8,0-2.3,0.5c0,0,0,0-0.5,0C14.2,49.8,6.4,67.3,6.4,86.6c0,16.1,5.5,30.8,14.3,42.3c0,0,0,0,0.5,0
		c0.5,0,0,0,0-0.5c-5.5-16.6,22.1-56.4,36.3-73.4l0,0l0,0C41.4,39.4,33.1,37.1,29.9,36.7z"/>
	<path d="M76.6,73.3L76.6,73.3c-21.2,16.1-56.9,55.5-45.8,66.5c12.4,11,28.5,17.5,45.8,17.5s33.6-6.4,45.8-17.5
		C133.7,128.8,97.8,89.4,76.6,73.3L76.6,73.3z"/>
</g>
<g>
	<polygon points="186.6,47 214.4,85.6 183.9,127.2 197.7,127.2 221.3,94.9 244.7,127.2 258.5,127.2 228.2,85.6 256.1,47 242.3,47 
		221.3,76.3 200.1,47 	"/>
	<polygon points="408.8,47 436.7,85.6 406.4,127.2 420.2,127.2 443.5,94.9 467.2,127.2 481,127.2 450.4,85.6 478.3,47 464.8,47 
		443.5,76.3 422.6,47 	"/>
	<path d="M409.1,70.3c-1.8-5.1-4.5-9.6-8.1-13.5s-7.8-6.9-12.6-8.7c-4.8-1.8-10.2-2.7-15.9-2.7c-5.7,0-11.4,0.9-15.9,2.7
		c-4.8,2.1-9,4.8-12.6,8.7s-6.3,8.4-8.1,13.5c-1.8,5.1-2.7,10.8-2.7,17.1c0,6.3,0.9,12,2.7,17.1c1.8,5.1,4.5,9.6,8.1,13.2
		s7.8,6.6,12.6,8.7c4.8,1.8,10.2,2.7,15.9,2.7c6,0,11.4-0.9,15.9-2.7c4.8-1.8,8.7-4.8,12.6-8.7c3.6-3.9,6.3-8.4,8.1-13.2
		c1.8-5.1,2.7-10.8,2.7-17.1C411.8,80.8,410.9,75.1,409.1,70.3z M392,109.6c-4.8,5.4-11.4,8.4-19.2,8.4c-8.1,0-14.4-2.7-19.2-8.4
		c-4.8-5.7-7.2-12.9-7.2-22.5s2.4-17.1,7.2-22.8c4.8-5.4,11.4-8.4,19.2-8.4c8.1,0,14.4,2.7,19.2,8.4c4.8,5.4,7.2,13.2,7.2,22.8
		S396.8,104.2,392,109.6z"/>
	<path d="M325.6,93.1c-2.4-3.3-5.7-5.7-10.2-7.5c6.9-3.9,10.5-9.9,10.5-17.4c0-6.3-2.1-11.4-6.6-15.3c-4.2-3.9-10.5-5.7-18.6-5.7
		h-35.9v34.1h-10.5l-7.5,10.3h18v35.6h37.4c8.7,0,15.3-2.1,20.1-6.3c4.8-4.2,6.9-9.6,6.9-16.8C329.1,100.3,328.2,96.1,325.6,93.1z
		 M277,57.4h23.1c4.5,0,8.1,0.9,10.2,3c2.4,2.1,3.6,4.8,3.6,8.4c0,4.2-1.2,7.2-3.6,9.3c-2.4,2.1-5.7,3.3-10.5,3.3h-23.1v-24
		C276.7,57.4,277,57.4,277,57.4z M313,113.4c-2.7,2.1-6.6,3.3-11.4,3.3H277V91.6h24.9c5.1,0,8.7,0.9,11.4,3.3
		c2.4,2.1,3.9,5.4,3.9,9.6C316.9,108.1,315.7,111.4,313,113.4z"/>
</g>
</svg>
